<svg xmlns="http://www.w3.org/2000/svg" xmlns:xlink="http://www.w3.org/1999/xlink" fill="none" version="1.1" width="32" height="32" viewBox="0 0 32 32"><rect x="0" y="0" width="32" height="32" rx="0" fill="#000000" fill-opacity="1" style="opacity:0;"/><g><path d="M4.8000002,5.759999942779541L0,5.759999942779541L0,2.559999942779541L4.8000002,2.559999942779541L4.8000002,5.759999942779541ZM9.5999756,5.759999942779541L9.5999756,2.559999942779541L31.999975,2.559999942779541L31.999975,5.759999942779541L9.5999756,5.759999942779541ZM4.8000002,16.95999694277954L0,16.95999694277954L0,13.75999694277954L4.8000002,13.75999694277954L4.8000002,16.95999694277954ZM9.5999756,16.95999694277954L31.999975,16.95999694277954L31.999975,13.75999694277954L9.5999756,13.75999694277954L9.5999756,16.95999694277954ZM4.8000002,28.15999494277954L0,28.15999494277954L0,24.95999394277954L4.8000002,24.95999394277954L4.8000002,28.15999494277954ZM9.5999756,28.15999494277954L31.999975,28.15999494277954L31.999975,24.95999394277954L9.5999756,24.95999394277954L9.5999756,28.15999494277954Z" fill-rule="evenodd" fill="#7A7A7A" fill-opacity="1"/></g></svg>