<svg xmlns="http://www.w3.org/2000/svg" xmlns:xlink="http://www.w3.org/1999/xlink" fill="none" version="1.1" width="19.2001953125" height="19.20001220703125" viewBox="0 0 19.2001953125 19.20001220703125"><g transform="matrix(0,1,-1,0,19.2001953125,-19.2001953125)"><rect x="19.2001953125" y="0" width="19.200000762939453" height="19.200000762939453" rx="0" fill="#000000" fill-opacity="1" style="opacity:0;"/><path d="M36.266650025390625,14.93349649375C35.946650025390625,14.93349649375,35.626650025390624,14.82682989375,35.413317025390626,14.61349579375L29.546650925390622,7.6801628937499995C29.333317725390625,7.57349609375,29.226650225390625,7.46682949375,28.906650525390624,7.46682949375C28.799984025390625,7.46682949375,28.479984325390625,7.57349609375,28.373316725390623,7.6801628937499995L22.186651025390624,14.50683019375C21.759984325390626,14.93349649375,21.119984505390626,14.93349649375,20.693317805390624,14.61349579375C20.266651168390624,14.18682959375,20.266651168390624,13.54682919375,20.586651165390624,13.12016299375L26.773317825390624,6.29349613375C27.306650625390624,5.65349611375,28.159984125390626,5.33349609375,29.013317125390625,5.33349609375C29.866650625390626,5.33349609375,30.613317025390625,5.76016280375,31.253317025390626,6.40016279375L37.11998402539062,13.22682999375C37.546650025390626,13.65349669375,37.439983025390625,14.29349609375,37.01331702539062,14.72016339375C36.79998402539063,14.82682989375,36.47998402539062,14.93349649375,36.266650025390625,14.93349649375Z" fill="#000000" fill-opacity="0.20000000298023224"/></g></svg>