<svg xmlns="http://www.w3.org/2000/svg" xmlns:xlink="http://www.w3.org/1999/xlink" fill="none" version="1.1" width="40" height="40" viewBox="0 0 40 40"><rect x="0" y="0" width="40" height="40" rx="0" fill="#000000" fill-opacity="1" style="opacity:0;"/><g><path d="M19.898,10.609000465393066C18.75,9.160000445393067,16.98,8.237000465393066,15,8.237000465393066L8,8.237000465393066C6.2050745,8.237000465393066,4.75,9.692074965393067,4.75,11.487000465393066L4.75,28.487000465393066L4.7549999999,28.671000465393067C4.85257815,30.391762465393068,6.2764728000000005,31.737113465393065,8,31.737000465393066L16.866,31.737000465393066L17.066000000000003,31.885001465393067C17.925446,32.48804146539307,18.950091999999998,32.811081465393066,20,32.81000046539307L20.266,32.80399946539306C21.224009,32.755206465393066,22.148792,32.43700846539306,22.934,31.886000465393067L23.132999,31.737999465393067L32,31.737000465393066C33.794926000000004,31.737000465393066,35.25,30.281926465393067,35.25,28.487000465393066L35.25,11.487000465393066C35.25,9.692074965393067,33.794926000000004,8.237000465393066,32,8.237000465393066L25,8.237000465393066L24.771,8.241000465593066C22.933952,8.306971818393066,21.219454,9.179587785393066,20.085,10.626000365393066L19.997999999999998,10.739000565393066L19.898,10.609000465393066ZM8,10.736993265393066L15,10.736993265393066L15,10.735993365393067C17.008257,10.735725165393067,18.660243,12.317611665393066,18.747,14.323993665393067L18.750999999999998,14.513993265393067L18.750999999999998,14.530993465393067L18.75,14.555993065393066L18.75,18.812993465393067L18.756,18.939993465393066C18.821272999999998,19.60428546539307,19.396953,20.100087465393067,20.06358,20.066141465393066C20.730206000000003,20.032195465393066,21.252544,19.480479465393067,21.25,18.812993465393067L21.25,14.522993065393067C21.240391,13.522208665393066,21.631233,12.559106865393066,22.335541,11.848040065393066C23.039845,11.136973365393066,23.999168,10.736947265393066,25,10.736993265393066L32,10.736993265393066C32.414213000000004,10.736993265393066,32.75,11.072779865393066,32.75,11.486993265393066L32.75,28.486992465393065C32.75,28.685906465393067,32.670981999999995,28.876671465393066,32.530331000000004,29.017323465393066C32.389677,29.157975465393065,32.198912,29.236992465393065,32,29.236992465393065L22.672001,29.237994465393065C22.35006,29.238081465393066,22.040569,29.362380465393066,21.807999,29.584994465393066C21.324001,30.048993465393067,20.683999999999997,30.310994465393065,20,30.310994465393065C19.326055,30.312272465393065,18.677903,30.052006465393067,18.192,29.584994465393066C17.959,29.362994465393065,17.65,29.237994465393065,17.328,29.237994465393065L8,29.236992465393065C7.586,29.236992465393065,7.25,28.900994465393065,7.25,28.486992465393065L7.25,11.486993265393066C7.25,11.072779865393066,7.5857863000000005,10.736993265393066,8,10.736993265393066Z" fill-rule="evenodd" fill="#54B799" fill-opacity="1"/></g></svg>