<svg xmlns="http://www.w3.org/2000/svg" xmlns:xlink="http://www.w3.org/1999/xlink" fill="none" version="1.1" width="40" height="40" viewBox="0 0 40 40"><rect x="0" y="0" width="40" height="40" rx="0" fill="#000000" fill-opacity="1" style="opacity:0;"/><g><path d="M30.614799,14.774C30.614799,20.812401,32.208400999999995,25.953199,34.438,27.8888C35.684799,28.969999,36.400002,30.5408,36.400002,32.193199C36.400002,34.118,34.846001,35.678001,32.928399999999996,35.678001L22.514799,35.678001C22.514799,37.601601,22.117599,38,20.200001,38C18.282400000000003,38,17.885199999999998,37.601601,17.885199999999998,35.678001L7.4716001,35.678001C5.554,35.678001,4,34.118,4,32.193199C4,30.5396,4.71640003,28.9688,5.962,27.8876C8.1928,25.952,9.7852001,20.811199,9.7852001,14.774C9.7852001,10.2032003,12.7131996,6.3271999,16.786,4.9087999C17.0608,3.26,18.4792,2,20.200001,2C21.920799,2,23.339199,3.26,23.614,4.9087999C27.6868,6.3271999,30.614799,10.2032003,30.614799,14.774ZM7.0746419,30.522802C6.592242000000001,30.942802,6.7062421,33.201201999999995,8.8002419,33.201201999999995L31.600243,33.201201999999995C34.059042000000005,33.201201999999995,33.809443,30.942802,33.325842,30.524002C30.226242,27.834803,28.300241,21.798801,28.300241,14.774003C28.300241,10.9316025,24.028242,6.6452026,20.200241,6.6452026C16.372242,6.6452026,12.1002426,10.9316025,12.1002426,14.774003C12.1002426,21.798801,10.174242,27.833603,7.0746419,30.522802Z" fill-rule="evenodd" fill="#000000" fill-opacity="0.5"/></g></svg>