<svg xmlns="http://www.w3.org/2000/svg" xmlns:xlink="http://www.w3.org/1999/xlink" fill="none" version="1.1" width="32" height="32" viewBox="0 0 32 32"><rect x="0" y="0" width="32" height="32" rx="0" fill="#000000" fill-opacity="1" style="opacity:0;"/><g><path d="M27.550401047683717,22.31104002384186C25.766719047683715,20.762560023841857,24.491840047683716,16.649920023841858,24.491840047683716,11.819200023841859C24.491840047683716,8.162560123841857,22.149440047683715,5.061760023841858,18.891200047683718,3.927040023841858C18.671360047683716,2.608000023841858,17.536640047683715,1.600000023841858,16.160000047683717,1.600000023841858C14.783360047683717,1.600000023841858,13.648640047683715,2.608000023841858,13.428800047683715,3.927040023841858C10.170560147683716,5.061760023841858,7.828160047683716,8.162560123841857,7.828160047683716,11.819200023841859C7.828160047683716,16.64896002384186,6.554239947683715,20.761600023841858,4.769600047683716,22.31007902384186C3.7731200476837157,23.175041023841857,3.200000047683716,24.431680023841857,3.200000047683716,25.754560023841858C3.200000047683716,27.294401023841857,4.443199947683716,28.542400023841857,5.977280147683716,28.542400023841857L14.308160047683716,28.542400023841857C14.308160047683716,30.08127902384186,14.625920047683715,30.399999023841858,16.160000047683717,30.399999023841858C17.694080047683716,30.399999023841858,18.011840047683716,30.08127902384186,18.011840047683716,28.542400023841857L26.342719047683715,28.542400023841857C27.876800047683716,28.542400023841857,29.120000047683718,27.294401023841857,29.120000047683718,25.754560023841858C29.120000047683718,24.43264002384186,28.547839047683716,23.17600002384186,27.550401047683717,22.31104002384186Z" fill-rule="evenodd" fill="#17B99A" fill-opacity="1"/></g></svg>