<svg xmlns="http://www.w3.org/2000/svg" xmlns:xlink="http://www.w3.org/1999/xlink" fill="none" version="1.1" width="36" height="36" viewBox="0 0 36 36"><g style="opacity:0.4000000059604645;"><rect x="0" y="0" width="36" height="36" rx="0" fill="#000000" fill-opacity="1" style="opacity:0;"/><g><path d="M30,26.99999976158142C31.245001,26.99999976158142,32.25,26.273999761581422,32.25,25.03199976158142L32.25,5.996999961581421C32.248757999999995,4.755359261581421,31.241642,3.7495852566214207,30,3.749999761581421L6,3.749999761581421C4.755,3.749999761581421,3.75,4.754999861581421,3.75,5.996999961581421L3.75,25.03199976158142C3.75,26.27174876158142,4.758,26.99999976158142,6,26.99999976158142L13.0725002,26.99999976158142L16.94025,31.12874976158142C17.222096,31.41217576158142,17.605229,31.57166076158142,18.004938,31.57194076158142C18.404647,31.57222376158142,18.788005,31.41327876158142,19.07025,31.130250761581422L22.918501,26.99999976158142L30,26.99999976158142ZM30.000002,25.50001276158142L22.080002,25.50001276158142L18.009002000000002,30.06901376158142C18.005046,30.07253276158142,13.930502,25.50001276158142,13.930502,25.50001276158142L6.0000014,25.50001276158142C5.5860015999999995,25.50001276158142,5.2500015,25.443013761581422,5.2500015,25.03201276158142L5.2500015,5.997013361581421C5.249598,5.7982523615814205,5.3285824999999996,5.607559761581421,5.4694093,5.467296361581421C5.6102362,5.327032761581421,5.8012438,5.24881316158142,6.0000014,5.250013361581421L30.000002,5.250013361581421C30.414001,5.250013361581421,30.750002,5.585263361581421,30.750002,5.997013361581421L30.750002,25.03201276158142C30.750002,25.44526276158142,30.417002,25.50001276158142,30.000002,25.50001276158142ZM12,17.24999976158142Q12.0736904,17.24999976158142,12.1470261,17.24277676158142Q12.2203617,17.23555376158142,12.292635,17.22117576158142Q12.3649101,17.206799761581422,12.4354267,17.18540976158142Q12.5059433,17.16401876158142,12.5740242,17.13581776158142Q12.6421051,17.107617761581423,12.7070951,17.072880761581423Q12.7720842,17.03814276158142,12.8333549,16.99720276158142Q12.8946266,16.95626376158142,12.9515905,16.90951476158142Q13.0085535,16.86276576158142,13.0606594,16.810658761581422Q13.1127663,16.75855276158142,13.1595154,16.70158976158142Q13.2062635,16.64462676158142,13.2472029,16.58335376158142Q13.2881432,16.522082761581423,13.3228807,16.45709376158142Q13.3576183,16.39210476158142,13.3858185,16.324023761581422Q13.4140186,16.255942761581423,13.4354095,16.18542676158142Q13.4568005,16.11490876158142,13.4711771,16.04263376158142Q13.4855537,15.97036176158142,13.4927778,15.897025761581421Q13.5,15.82368976158142,13.5,15.749999761581421Q13.5,15.676309761581422,13.4927778,15.60297376158142Q13.4855537,15.529637761581421,13.4711771,15.457363761581421Q13.4568005,15.38508976158142,13.4354095,15.31457276158142Q13.4140186,15.244055761581421,13.3858185,15.175973761581421Q13.3576183,15.107892761581422,13.3228807,15.042903761581421Q13.2881432,14.97791476158142,13.2472029,14.916642761581421Q13.2062635,14.855372761581421,13.1595154,14.798409761581421Q13.1127663,14.741446761581422,13.0606594,14.68933976158142Q13.0085535,14.63723376158142,12.9515905,14.59048476158142Q12.8946266,14.543735761581422,12.8333549,14.502794761581422Q12.7720842,14.46185576158142,12.7070951,14.427117761581421Q12.6421051,14.392380761581421,12.5740242,14.36417976158142Q12.5059433,14.335980761581421,12.4354267,14.314589761581422Q12.3649101,14.293199761581421,12.292635,14.27882176158142Q12.2203617,14.26444576158142,12.1470261,14.25722276158142Q12.0736904,14.249999761581421,12,14.249999761581421Q11.9263096,14.249999761581421,11.8529749,14.25722276158142Q11.7796383,14.26444576158142,11.7073641,14.27882176158142Q11.6350899,14.293199761581421,11.5645723,14.314589761581422Q11.4940553,14.335980761581421,11.425973899999999,14.36417976158142Q11.3578939,14.39237976158142,11.2929049,14.427116761581422Q11.2279158,14.46185476158142,11.1666441,14.50279376158142Q11.105373400000001,14.543735761581422,11.0484099,14.590483761581421Q10.9914465,14.637232761581421,10.9393396,14.689338761581421Q10.8872328,14.74144576158142,10.8404846,14.79840876158142Q10.7937355,14.85537176158142,10.752795200000001,14.916642761581421Q10.711855400000001,14.97791476158142,10.677117800000001,15.042903761581421Q10.6423807,15.107892761581422,10.614180099999999,15.175973761581421Q10.5859804,15.244055761581421,10.5645885,15.31457276158142Q10.5431976,15.38508976158142,10.5288215,15.457363761581421Q10.5144458,15.529637761581421,10.5072227,15.60297376158142Q10.5,15.676309761581422,10.5,15.749999761581421Q10.5,15.82368976158142,10.5072227,15.897025761581421Q10.5144453,15.97036176158142,10.528821,16.04263476158142Q10.5431976,16.114909761581423,10.564589,16.18542676158142Q10.5859799,16.255942761581423,10.6141796,16.324023761581422Q10.6423802,16.39210476158142,10.677117299999999,16.45709376158142Q10.711854899999999,16.522082761581423,10.7527943,16.58335376158142Q10.7937355,16.64462676158142,10.8404837,16.70158976158142Q10.8872328,16.75855276158142,10.9393392,16.810658761581422Q10.9914465,16.86276576158142,11.0484095,16.90951476158142Q11.105372899999999,16.95626376158142,11.1666436,16.99720276158142Q11.2279153,17.03814276158142,11.292904400000001,17.072880761581423Q11.3578935,17.107617761581423,11.425973899999999,17.13581776158142Q11.4940553,17.16401876158142,11.5645723,17.18540976158142Q11.6350899,17.206799761581422,11.7073641,17.22117576158142Q11.7796383,17.23555376158142,11.8529749,17.24277676158142Q11.9263096,17.24999976158142,12,17.24999976158142ZM18,17.24999976158142Q18.07369,17.24999976158142,18.147026,17.24277676158142Q18.220362,17.23555376158142,18.292635,17.22117576158142Q18.364910000000002,17.206799761581422,18.435427,17.18540976158142Q18.505943000000002,17.16401876158142,18.574024,17.13581776158142Q18.642106,17.107617761581423,18.707095000000002,17.072880761581423Q18.772084,17.03814276158142,18.833354999999997,16.99720276158142Q18.894627,16.95626376158142,18.95159,16.90951476158142Q19.008553,16.86276576158142,19.060659,16.810658761581422Q19.112766,16.75855276158142,19.159515,16.70158976158142Q19.206263999999997,16.64462676158142,19.247203,16.58335376158142Q19.288145,16.522082761581423,19.322882,16.45709376158142Q19.357619,16.39210476158142,19.385818,16.324023761581422Q19.41402,16.255942761581423,19.435409999999997,16.18542676158142Q19.456802,16.11490876158142,19.471177,16.04263376158142Q19.485554999999998,15.97036176158142,19.492778,15.897025761581421Q19.500000999999997,15.82368976158142,19.5,15.749999761581421Q19.500000999999997,15.676309761581422,19.492778,15.60297376158142Q19.485554999999998,15.529637761581421,19.471177,15.457363761581421Q19.456802,15.38508976158142,19.435411000000002,15.31457276158142Q19.41402,15.244055761581421,19.385818,15.175973761581421Q19.357619,15.107892761581422,19.322882,15.042903761581421Q19.288145,14.97791476158142,19.247204,14.916642761581421Q19.206263999999997,14.855372761581421,19.159515,14.798409761581421Q19.112766,14.741446761581422,19.060659,14.68933976158142Q19.008553,14.63723376158142,18.95159,14.59048476158142Q18.894627,14.543735761581422,18.833354,14.502794761581422Q18.772083000000002,14.46185576158142,18.707093999999998,14.427117761581421Q18.642105,14.392380761581421,18.574023,14.36417976158142Q18.505943000000002,14.335980761581421,18.435426,14.314589761581422Q18.364909,14.293199761581421,18.292634,14.27882176158142Q18.220361,14.26444576158142,18.147026,14.25722276158142Q18.07369,14.249999761581421,18,14.249999761581421Q17.92631,14.249999761581421,17.852975,14.25722276158142Q17.779639,14.26444576158142,17.707364,14.27882176158142Q17.635091,14.293199761581421,17.564573,14.314589761581422Q17.494056,14.335980761581421,17.425974,14.36417976158142Q17.357893,14.39237976158142,17.292904999999998,14.427116761581422Q17.227915,14.46185476158142,17.166643,14.50279376158142Q17.105372,14.543735761581422,17.048409,14.590483761581421Q16.991446,14.637232761581421,16.939339,14.689338761581421Q16.887231999999997,14.74144576158142,16.840484,14.79840876158142Q16.793734999999998,14.85537176158142,16.752793,14.916642761581421Q16.711855,14.97791476158142,16.677115999999998,15.042903761581421Q16.64238,15.107892761581422,16.614179999999998,15.175973761581421Q16.58598,15.244055761581421,16.564588999999998,15.31457276158142Q16.543199,15.38508976158142,16.528821999999998,15.457363761581421Q16.514446,15.529637761581421,16.507224,15.60297376158142Q16.500000999999997,15.676309761581422,16.5,15.749999761581421Q16.500000999999997,15.82368976158142,16.507223,15.897025761581421Q16.514446,15.97036176158142,16.528821,16.04263476158142Q16.543198,16.114909761581423,16.564588999999998,16.18542676158142Q16.58598,16.255942761581423,16.614179999999998,16.324023761581422Q16.64238,16.39210476158142,16.677117000000003,16.45709376158142Q16.711855,16.522082761581423,16.752794,16.58335376158142Q16.793736000000003,16.64462676158142,16.840485,16.70158976158142Q16.887234,16.75855276158142,16.93934,16.810658761581422Q16.991447,16.86276576158142,17.048409,16.90951476158142Q17.105373,16.95626376158142,17.166643999999998,16.99720276158142Q17.227916,17.03814276158142,17.292904999999998,17.072880761581423Q17.357893,17.107617761581423,17.425974,17.13581776158142Q17.494056,17.16401876158142,17.564573,17.18540976158142Q17.635091,17.206799761581422,17.707364,17.22117576158142Q17.779639,17.23555376158142,17.852975,17.24277676158142Q17.92631,17.24999976158142,18,17.24999976158142ZM25.5,15.749999761581421Q25.5,15.82368976158142,25.492779,15.897025761581421Q25.485554,15.97036176158142,25.471178,16.04263476158142Q25.456802,16.114909761581423,25.43541,16.18542676158142Q25.414021,16.255942761581423,25.385818,16.324023761581422Q25.357618,16.39210476158142,25.322882,16.45709376158142Q25.288143,16.522082761581423,25.247204,16.58335376158142Q25.206264,16.64462676158142,25.159515,16.70158976158142Q25.112766,16.75855276158142,25.060659,16.810658761581422Q25.008553,16.86276576158142,24.95159,16.90951476158142Q24.894627,16.95626376158142,24.833353,16.99720276158142Q24.772083,17.03814276158142,24.707094,17.072880761581423Q24.642105,17.107617761581423,24.574024,17.13581776158142Q24.505943,17.16401876158142,24.435427,17.18540976158142Q24.36491,17.206799761581422,24.292635,17.22117576158142Q24.22036,17.23555376158142,24.147026,17.24277676158142Q24.07369,17.24999976158142,24,17.24999976158142Q23.926311,17.24999976158142,23.852974,17.24277676158142Q23.77964,17.23555376158142,23.707363,17.22117576158142Q23.63509,17.206799761581422,23.564573,17.18540976158142Q23.494055,17.16401876158142,23.425972,17.13581776158142Q23.357891,17.107617761581423,23.292904,17.072880761581423Q23.227915,17.03814276158142,23.166643,16.99720276158142Q23.105373,16.95626376158142,23.048409,16.90951476158142Q22.991447,16.86276576158142,22.939339,16.810658761581422Q22.887234,16.75855276158142,22.840485,16.70158976158142Q22.793736,16.64462676158142,22.752794,16.58335376158142Q22.711855,16.522082761581423,22.677116,16.45709376158142Q22.64238,16.39210476158142,22.614178,16.324023761581422Q22.585979,16.255942761581423,22.564587,16.18542676158142Q22.543198,16.11490876158142,22.52882,16.04263376158142Q22.514446,15.97036176158142,22.507223,15.897025761581421Q22.5,15.82368976158142,22.5,15.749999761581421Q22.5,15.676309761581422,22.507223,15.60297376158142Q22.514446,15.529637761581421,22.52882,15.457363761581421Q22.543198,15.38508976158142,22.564587,15.31457276158142Q22.585979,15.244055761581421,22.614178,15.175973761581421Q22.64238,15.107892761581422,22.677116,15.042903761581421Q22.711855,14.97791476158142,22.752794,14.916642761581421Q22.793736,14.855372761581421,22.840485,14.798409761581421Q22.887234,14.741446761581422,22.939339,14.68933976158142Q22.991447,14.63723376158142,23.048409,14.59048476158142Q23.105371,14.543735761581422,23.166641,14.502794761581422Q23.227913,14.46185576158142,23.292902,14.427117761581421Q23.357891,14.392380761581421,23.425972,14.36417976158142Q23.494055,14.335980761581421,23.564573,14.314589761581422Q23.63509,14.293199761581421,23.707363,14.27882176158142Q23.77964,14.26444576158142,23.852974,14.25722276158142Q23.926311,14.249999761581421,24,14.249999761581421Q24.07369,14.249999761581421,24.147026,14.25722276158142Q24.22036,14.26444576158142,24.292633,14.27882176158142Q24.364908,14.293199761581421,24.435425,14.314589761581422Q24.505943,14.335980761581421,24.574022,14.36417976158142Q24.642105,14.39237976158142,24.707092,14.427116761581422Q24.772081,14.46185476158142,24.833351,14.50279376158142Q24.894625,14.543735761581422,24.95159,14.590483761581421Q25.008553,14.637232761581421,25.060659,14.689338761581421Q25.112766,14.74144576158142,25.159515,14.79840876158142Q25.206264,14.85537176158142,25.247202,14.916642761581421Q25.288143,14.97791476158142,25.32288,15.042903761581421Q25.357618,15.107892761581422,25.385818,15.175973761581421Q25.414021,15.244055761581421,25.43541,15.31457276158142Q25.456802,15.38508976158142,25.471176,15.457363761581421Q25.485554,15.529637761581421,25.492779,15.60297376158142Q25.5,15.676309761581422,25.5,15.749999761581421Z" fill-rule="evenodd" fill="#000000" fill-opacity="1"/></g></g></svg>