<svg xmlns="http://www.w3.org/2000/svg" xmlns:xlink="http://www.w3.org/1999/xlink" fill="none" version="1.1" width="36" height="36" viewBox="0 0 36 36"><rect x="0" y="0" width="36" height="36" rx="0" fill="#989999" fill-opacity="1" style="opacity:0;"/><g><path d="M31.187378,16.9366446C31.377584,17.114604,31.5,17.365124700000003,31.5,17.645732000000002C31.5,17.940466,31.368181,18.205066000000002,31.161053,18.381193C31.159929,18.38177,31.160822,18.382329,31.161722,18.382893L31.162933,18.384038L20.504925,27.588049C20.339165,27.720831,20.133916,27.806507,19.906007000000002,27.806507C19.371118,27.806507,18.939841,27.375231,18.939841,26.840342L18.939841,23.066077999999997C14.928267,23.477588,11.3517323,24.501225,9.048390900000001,25.76873C8.0991483,26.269676,6.882509000000001,27.01454,5.4756161,28.013683C5.47467589,28.013683,5.47467589,28.011803,5.47467589,28.010159C5.47467589,28.008512,5.47467589,28.007103,5.47373575,28.008043C5.3738839,28.073952,5.25334823,28.112572,5.1252910499999995,28.112572C4.79381785,28.112572,4.526373226,27.853613,4.5,27.527781C5.05938214,19.842665,10.794230500000001,13.8544984,18.939793,12.5398874L18.939793,8.46616608C18.939793,7.93224108,19.37107,7.5,19.905959,7.5C20.14515,7.5,20.361729,7.590401798,20.53125,7.73446608L31.187378,16.9366446ZM20.872158,20.970777L20.872158,24.718666L29.055424,17.650404L20.872158,10.5811768L20.872158,14.236784L20.019005999999997,14.338467600000001C13.3236332,15.136076899999999,8.4287252,19.184389,6.890014600000001,24.842047C10.048436200000001,22.582002,15.636423,21.360638,19.834440999999998,21.048016L20.872158,20.970777Z" fill-rule="evenodd" fill="#989999" fill-opacity="1"/></g></svg>