<svg xmlns="http://www.w3.org/2000/svg" xmlns:xlink="http://www.w3.org/1999/xlink" fill="none" version="1.1" width="36" height="36" viewBox="0 0 36 36"><rect x="0" y="0" width="36" height="36" rx="0" fill="#000000" fill-opacity="1" style="opacity:0;"/><g><path d="M25.00199999809265,6.065999936239624L28.943998998092653,6.065999936239624C30.74399999809265,6.065999936239624,32.219999998092646,7.5420000362396244,32.219999998092646,9.342000236239624L32.219999998092646,28.728000036239624C32.219999998092646,30.545999036239625,30.74399999809265,32.00399903623962,28.943998998092653,32.00399903623962L7.127999998092651,32.00399903623962C5.327999998092651,32.00399903623962,3.8519999980926514,30.528000036239625,3.8519999980926514,28.728000036239624L3.8519999980926514,9.342000236239624C3.8519999980926514,7.5420000362396244,5.327999998092651,6.065999936239624,7.127999998092651,6.065999936239624L11.088000098092651,6.065999936239624L11.088000098092651,4.2840000362396236C11.088000098092651,3.7620000262396243,11.520000198092651,3.312000036239624,12.060000198092652,3.312000036239624C12.581999498092651,3.312000036239624,13.032000298092651,3.744000046239624,13.032000298092651,4.2840000362396236L13.032000298092651,6.065999936239624L23.05799899809265,6.065999936239624L23.05799899809265,4.2840000362396236C23.05799899809265,3.7620000262396243,23.489999998092653,3.312000036239624,24.02999899809265,3.312000036239624C24.55200099809265,3.312000036239624,25.00199999809265,3.744000046239624,25.00199999809265,4.2840000362396236L25.00199999809265,6.065999936239624ZM28.94400099809265,30.059997036239626C29.68199999809265,30.059997036239626,30.27599999809265,29.465997036239624,30.27599999809265,28.727998036239622L30.25799999809265,28.727998036239622L30.25799999809265,9.341997836239624C30.25799999809265,8.603997936239624,29.663999998092653,8.009998036239624,28.925998998092652,8.009998036239624L24.983999998092653,8.009998036239624L24.983999998092653,9.629997936239624C24.983999998092653,10.151998236239624,24.55200099809265,10.601998136239624,24.01199999809265,10.601998136239624C23.489999998092653,10.601998136239624,23.03999999809265,10.169997936239625,23.03999999809265,9.629997936239624L23.03999999809265,8.009998036239624L13.014000698092651,8.009998036239624L13.014000698092651,9.629997936239624C13.014000698092651,10.151998236239624,12.581999498092651,10.601998136239624,12.042000498092651,10.601998136239624C11.520000198092651,10.601998136239624,11.070000398092652,10.169997936239625,11.070000398092652,9.629997936239624L11.070000398092652,8.009998036239624L7.128000298092651,8.009998036239624C6.390000098092651,8.009998036239624,5.796000198092651,8.603997936239624,5.796000198092651,9.341997836239624L5.796000198092651,28.727998036239622C5.796000198092651,29.465997036239624,6.390000098092651,30.059997036239626,7.128000298092651,30.059997036239626L28.94400099809265,30.059997036239626Z" fill-rule="evenodd" fill="#2C2C2C" fill-opacity="1"/></g><path d="M16.596000244140626,25.145999891552734C16.272000344140626,25.145999891552734,15.948000444140625,25.020000491552736,15.696000144140626,24.767999691552735L11.322000234140624,20.394000091552734C10.818000244140626,19.889999891552733,10.818000244140626,19.080000191552735,11.322000234140624,18.594000091552736C11.826000274140625,18.090000191552733,12.636000244140625,18.090000191552733,13.122000244140626,18.594000091552736L16.596000244140626,22.068000291552735L22.932000244140625,15.732000081552734C23.436000244140626,15.228000091552735,24.246000244140625,15.228000091552735,24.732000244140625,15.732000081552734C25.236000244140627,16.236000121552735,25.236000244140627,17.046000091552735,24.732000244140625,17.532000091552735L17.478000144140626,24.78600029155273C17.262000044140624,25.020000491552736,16.938000244140625,25.145999891552734,16.596000244140626,25.145999891552734Z" fill="#2C2C2C" fill-opacity="1"/></svg>