<svg xmlns="http://www.w3.org/2000/svg" xmlns:xlink="http://www.w3.org/1999/xlink" fill="none" version="1.1" width="19.20001220703125" height="19.199996948242188" viewBox="0 0 19.20001220703125 19.199996948242188"><g transform="matrix(0,1,-1,0,19.20001220703125,-19.20001220703125)"><rect x="19.20001220703125" y="0" width="19.200000762939453" height="19.200000762939453" rx="0" fill="#000000" fill-opacity="1" style="opacity:0;"/><path d="M36.2666786819458,14.933333892279054C35.9466786819458,14.933333892279054,35.626678681945805,14.826666392279053,35.4133456819458,14.613333192279052L29.546678581945798,7.680000092279053C29.3333453819458,7.573333492279053,29.2266788819458,7.4666668922790524,28.9066791819458,7.4666668922790524C28.8000125819458,7.4666668922790524,28.4800119819458,7.573333492279053,28.3733453819458,7.680000092279053L22.186678881945802,14.506666692279053C21.7600121819458,14.933333892279054,21.1200121619458,14.933333892279054,20.693345491945802,14.613333192279052C20.2666788099458,14.186666992279052,20.2666788099458,13.546666592279053,20.5866788319458,13.120000392279053L26.7733454819458,6.293333472279053C27.3066787819458,5.653333482279053,28.1600122819458,5.333333492279053,29.0133456819458,5.333333492279053C29.8666791819458,5.333333492279053,30.6133446819458,5.760000172279053,31.253345681945802,6.400000192279053L37.1200116819458,13.226666892279052C37.546679681945804,13.653333192279053,37.4400126819458,14.293333492279054,37.013344681945796,14.719999792279053C36.800011681945804,14.826667292279053,36.4800116819458,14.933333892279054,36.2666786819458,14.933333892279054Z" fill="#FFFFFF" fill-opacity="1"/></g></svg>