<svg xmlns="http://www.w3.org/2000/svg" xmlns:xlink="http://www.w3.org/1999/xlink" fill="none" version="1.1" width="32" height="32" viewBox="0 0 32 32"><rect x="0" y="0" width="32" height="32" rx="0" fill="#000000" fill-opacity="1" style="opacity:0;"/><g><path d="M5.524210485501099,31.284228181179046L26.4757891855011,31.284228181179046C27.887307185501097,31.284415181179046,29.0380641855011,30.152402181179045,29.0610531855011,28.741069181179046L29.0610531855011,19.680016181179045C29.0610531855011,19.214934181179046,28.684030185501097,18.837912181179046,28.218947185501097,18.837912181179046C27.7538651855011,18.837912181179046,27.376842185501097,19.214934181179046,27.376842185501097,19.680016181179045L27.376842185501097,28.741069181179046C27.377416185501097,28.975009181179047,27.2806481855011,29.198643181179047,27.1097331855011,29.358378181179045C26.9388151855011,29.518113181179046,26.7091551855011,29.599551181179045,26.4757891855011,29.583174181179047L5.524210485501099,29.583174181179047C5.290844885501098,29.599551181179045,5.061183685501099,29.518113181179046,4.890267285501099,29.358378181179045C4.719350685501099,29.198643181179047,4.622583985501098,28.975009181179047,4.6231579855010985,28.741069181179046L4.6231579855010985,3.3684379811790466C4.622583985501098,3.1344989811790467,4.719350685501099,2.910864281179047,4.890267285501099,2.7511291811790466C5.061183685501099,2.591394081179047,5.290844885501098,2.5099562811790466,5.524210485501099,2.526332781179047L26.509473185501097,2.526332781179047C26.742839185501097,2.5099562811790466,26.9725011855011,2.591394081179047,27.1434161855011,2.7511291811790466C27.3143341855011,2.910864281179047,27.411099185501097,3.1344989811790467,27.410525185501097,3.3684379811790466C27.410525185501097,3.8335198811790465,27.7875491855011,4.210543381179047,28.252631185501098,4.210543381179047C28.717713185501097,4.210543381179047,29.0947371855011,3.8335198811790465,29.0947371855011,3.3684379811790466C29.062524185501097,1.9505110811790467,27.8939561855011,0.8232769351790467,26.4757891855011,0.8421222075390467L5.524210485501099,0.8421222075390467C4.106042985501099,0.8232769351790467,2.9374768885010987,1.9505110811790467,2.9052631855010986,3.3684379811790466L2.9052631855010986,28.757912181179048C2.937476906501099,30.175839181179047,4.106042985501099,31.303073181179048,5.524210485501099,31.284228181179046ZM16.815544185501096,22.769215181179046C17.1234101855011,23.135413181179047,17.5763241855011,23.348260181179047,18.0547291855011,23.35156918117905C18.2613211855011,23.355363181179047,18.466849185501097,23.321109181179047,18.661044185501098,23.250516181179048L22.0294661855011,21.978938181179046C22.440324185501098,21.822221181179046,22.803159185501098,21.560979181179047,23.082097185501098,21.221043181179045L31.267360185501097,10.879989181179047C32.0749291855011,9.838441781179046,31.9029071855011,8.342610781179047,30.879991185501098,7.511568981179047L29.136834185501097,6.130515981179046C28.0965991855011,5.318267781179046,26.597116185501097,5.490708281179047,25.7684131855011,6.517884681179047L17.5410441855011,16.858937181179048C17.2895071855011,17.177418181179046,17.1216061855011,17.553746181179047,17.0526241855011,17.953675181179047L16.4547291855011,21.448411181179047C16.3758031855011,21.920272181179048,16.507679185501097,22.403016181179048,16.815544185501096,22.769215181179046ZM19.031568185501097,7.890540981179047L9.2631461855011,7.890540981179047C8.798063985501098,7.890540981179047,8.421040785501098,7.5135172811790465,8.421040785501098,7.048435581179047C8.421040785501098,6.583353481179047,8.798063985501098,6.206330281179047,9.2631461855011,6.206330281179047L19.031568185501097,6.206330281179047C19.496648185501098,6.206330281179047,19.873673185501097,6.583353481179047,19.873673185501097,7.048435581179047C19.873673185501097,7.5135172811790465,19.496648185501098,7.890540981179047,19.031568185501097,7.890540981179047ZM27.570512185501098,7.301050081179047L27.6547251855011,7.301050081179047L27.6547251855011,7.292628681179047C27.8207251855011,7.288836381179046,27.9824081855011,7.345725481179047,28.1094601855011,7.452628981179046L29.8441971855011,8.833681481179045C29.9952041855011,8.952994281179047,30.0925111855011,9.127507181179046,30.114629185501098,9.318686381179047C30.1367501855011,9.509864781179047,30.0818641855011,9.701986281179046,29.9620921855011,9.852628681179047L21.7515651855011,20.143155181179047C21.671744185501097,20.247342181179047,21.563558185501098,20.326289181179046,21.4399861855011,20.370522181179048L18.1305131855011,21.608418181179047L18.7115661855011,18.239999181179048C18.735772185501098,18.12019418117905,18.7876841855011,18.007722181179048,18.863145185501097,17.911576181179047L27.082093185501098,7.578944581179047C27.2038361855011,7.427807781179046,27.3783921855011,7.328492581179047,27.570512185501098,7.301050081179047ZM9.2631461855011,13.153663181179047L14.728409185501098,13.153663181179047C15.193491185501099,13.153663181179047,15.570514185501098,12.776640181179047,15.570514185501098,12.311558181179047C15.570514185501098,11.846476181179046,15.193491185501099,11.469453181179047,14.728409185501098,11.469453181179047L9.2631461855011,11.469453181179047C8.798063985501098,11.469453181179047,8.421040785501098,11.846476181179046,8.421040785501098,12.311558181179047C8.421040785501098,12.776640181179047,8.798063985501098,13.153663181179047,9.2631461855011,13.153663181179047ZM22.736829185501097,26.475806181179045L9.2631461855011,26.475806181179045C8.798063985501098,26.475806181179045,8.421040785501098,26.098784181179045,8.421040785501098,25.633702181179046C8.421040785501098,25.168620181179048,8.798063985501098,24.791596181179045,9.2631461855011,24.791596181179045L22.736829185501097,24.791596181179045C23.2019131855011,24.791596181179045,23.5789351855011,25.168620181179048,23.5789351855011,25.633702181179046C23.5789351855011,26.098784181179045,23.2019131855011,26.475806181179045,22.736829185501097,26.475806181179045Z" fill-rule="evenodd" fill="#000000" fill-opacity="1"/></g></svg>