<svg xmlns="http://www.w3.org/2000/svg" xmlns:xlink="http://www.w3.org/1999/xlink" fill="none" version="1.1" width="36" height="36" viewBox="0 0 36 36"><rect x="0" y="0" width="36" height="36" rx="0" fill="#000000" fill-opacity="1" style="opacity:0;"/><path d="M34.5,7.046249901934814C34.496658,5.972873001934815,33.730736,5.053451601934815,32.675625,4.856249841934814L32.25,4.779374841934814L32.25,4.790624861934814C32.124374,4.764374851934814,31.996876,4.7418748419348145,31.875,4.717499851934814C30.386259000000003,4.4858141519348145,28.881658,4.371088330634814,27.375,4.374374849321814C22.1643748,4.374374849321814,17.690625,5.686874901934814,15.75,7.548749901934814L15.75,10.070624801934814C18.25125,7.933124801934815,22.4400001,6.530624901934814,27.1875,6.530624901934814C29.677661999999998,6.512293801934815,32.152037,6.927227501934814,34.5,7.756874801934814L34.5,7.046249901934814Z" fill="#333333" fill-opacity="1"/><path d="M32.25,6.343124866485596L32.25,28.040624866485597C30.584145,27.699495866485595,28.887923,27.528617866485597,27.1875,27.530624866485596C23.8125,27.530624866485596,20.6418748,28.164375866485596,18,29.326873866485595L18,7.843124866485596L15.75,7.843124866485596L15.75,29.437500866485596C15.749945070249,30.175562866485595,16.12323225,30.863563866485595,16.74201328,31.265865866485594C17.3607943,31.668167866485597,18.1410789,31.730165866485596,18.815625,31.430624866485594C21.1424999,30.393749866485596,24.0431252,29.776874866485596,27.1875,29.776874866485596C28.752744,29.773676866485594,30.314138,29.932014866485595,31.846874,30.249374866485596C32.496836,30.383575866485597,33.172681999999995,30.218143866485597,33.687176,29.798912866485594C34.20167,29.379682866485595,34.500177,28.751169866485597,34.5,28.087499866485597L34.5,7.2993748764855955C34.500001999999995,6.771983946485595,34.073015,6.344158979285596,33.545626,6.343124866485596L32.25,6.343124866485596Z" fill="#333333" fill-opacity="1"/><path d="M14.24999961581421,28.113749201934816C12.46428461581421,27.721073201934814,10.640872515814209,27.525528201934815,8.812500015814209,27.530625201934814C7.112076715814209,27.528618201934815,5.4158554158142085,27.699496201934814,3.750000015814209,28.040625201934816L3.750000015814209,7.096875001934814C5.410883415814209,6.719035901934815,7.109185715814209,6.530335401934814,8.812500015814209,6.534375001934814C10.644957015814208,6.529029601934814,12.471131615814208,6.748800301934814,14.24999961581421,7.188749801934815L14.24999961581421,7.175624801934815C14.78538361581421,6.464531901934814,15.462866615814209,5.872613001934814,16.239374615814206,5.437499901934815C14.12062461581421,4.769999831934815,11.48437451581421,4.374374849321814,8.625000015814209,4.374374849321814C7.118341915814209,4.371088330634814,5.613740915814209,4.4858141519348145,4.125000015814209,4.717499851934814C3.997499915814209,4.7418748419348145,3.869999915814209,4.764374851934814,3.750000015814209,4.790624861934814L3.750000015814209,4.779374841934814L3.375000015814209,4.848749841934814C2.2919167258142092,5.046543301934815,1.503764191414209,5.988385601934814,1.499999961981309,7.089374801934815L1.499999961981309,28.021874201934814C1.499021261234209,28.702071201934814,1.804285495814209,29.346575201934815,2.3311826558142092,29.776747201934814C2.858079815814209,30.206919201934813,3.550628415814209,30.377054201934815,4.216875115814209,30.240000201934816C5.729292915814209,29.931984201934814,7.269038215814209,29.778073201934813,8.812500015814209,29.780625201934814C10.645035315814209,29.775873201934814,12.471213615814209,29.996275201934814,14.24999961581421,30.436875201934814L14.24999961581421,28.113749201934816Z" fill="#333333" fill-opacity="1"/></svg>