<svg xmlns="http://www.w3.org/2000/svg" xmlns:xlink="http://www.w3.org/1999/xlink" fill="none" version="1.1" width="44" height="44" viewBox="0 0 44 44"><rect x="0" y="0" width="44" height="44" rx="0" fill="#000000" fill-opacity="1" style="opacity:0;"/><g><path d="M5.5,35.75L1.8333334,35.75C0.82081127,35.75,0,34.929188,0,33.916668L0,18.333334C0,17.847103,0.19315422,17.380787,0.53697091,17.03697C0.88078761,16.693153,1.3471031,16.5,1.8333334,16.5L5.5,16.5L5.5,3.6666667C5.5,1.6416225,7.1416225,0,9.166667,0L31.94125,0L44,12.136666L44,40.333332C44,42.358376,42.358376,44,40.333332,44L9.166667,44C7.1416225,44,5.5,42.358376,5.5,40.333332L5.5,35.75ZM8.25,16.5L35.75,16.5C36.236229,16.5,36.702545,16.693153,37.046364,17.036972C37.390179,17.380787,37.583336,17.847103,37.583336,18.333332L37.583336,33.916664C37.583336,34.929188,36.76252,35.75,35.75,35.75L8.25,35.75L8.25,40.333332C8.25,40.57645,8.3465767,40.809605,8.5184851,40.981514C8.6903934,41.153423,8.9235516,41.25,9.166667,41.25L40.333332,41.25C40.839596,41.25,41.25,40.839596,41.25,40.333332L41.25,13.269667L40.816418,12.833333L35.379669,12.833333C33.052891,12.833333,31.166666,10.947109,31.166666,8.6203327L31.166666,3.1221666L30.796333,2.75L9.166667,2.75C8.9235516,2.75,8.6903934,2.8465772,8.5184851,3.0184855C8.3465767,3.1903939,8.25,3.4235516,8.25,3.6666665L8.25,16.5ZM4.0654144,20.302368L4.0654144,32.083366L5.9959145,32.083366L5.9959145,27.562368L8.9164143,27.562368C11.787415,27.562368,13.222915,26.341368,13.222915,23.915869C13.222915,21.506868,11.787415,20.302368,8.9494143,20.302368L4.0654144,20.302368ZM14.87291,32.083366L14.87291,20.302368L19.756908,20.302368C22.59491,20.302368,24.030411,21.506868,24.030411,23.915869C24.030411,26.341368,22.59491,27.562368,19.723909,27.562368L16.80341,27.562368L16.80341,32.083366L14.87291,32.083366ZM24.772919,20.302368L24.772919,21.952368L28.633919,21.952368L28.633919,32.083366L30.564419,32.083366L30.564419,21.952368L34.425419,21.952368L34.425419,20.302368L24.772919,20.302368ZM8.8009109,21.952393L5.9959106,21.952393L5.9959106,25.912392L8.8009109,25.912392C9.6589108,25.912392,10.285911,25.747393,10.681911,25.450392Q11.27591,24.980143,11.275911,23.915894C11.275911,23.206392,11.061411,22.711393,10.665411,22.414392C10.269411,22.100893,9.6424103,21.952393,8.8009109,21.952393ZM19.608421,21.952393L16.803421,21.952393L16.803421,25.912392L19.608421,25.912392C20.466421,25.912392,21.093422,25.747393,21.489422,25.450392Q22.083422,24.980143,22.083422,23.915894C22.083422,23.206392,21.868921,22.711393,21.472921,22.414392C21.076921,22.100893,20.449921,21.952393,19.608421,21.952393Z" fill-rule="evenodd" fill="#FFFFFF" fill-opacity="1"/></g></svg>