<svg xmlns="http://www.w3.org/2000/svg" xmlns:xlink="http://www.w3.org/1999/xlink" fill="none" version="1.1" width="36" height="36" viewBox="0 0 36 36"><rect x="0" y="0" width="36" height="36" rx="0" fill="#000000" fill-opacity="1" style="opacity:0;"/><g><path d="M32.57305417300415,15.255996669128418C31.89513017300415,14.150502669128418,30.90878717300415,13.703073669128418,29.71522417300415,13.654757669128418C29.65298717300415,13.646087669128418,29.59089317300415,13.640943669128418,29.52606417300415,13.640943669128418L22.30331317300415,13.616731669128418C22.77661017300415,12.243542669128418,23.10132417300415,10.607731869128418,23.10132417300415,9.070422169128417C23.10132417300415,8.073753869128417,22.98904417300415,7.102987969128418,22.78344417300415,6.168521669128419L22.76621117300415,6.170248469128418C22.392210173004152,4.532710669128418,20.94735617300415,3.311518669128418,19.216606173004152,3.311518669128418C17.20341117300415,3.311518669128418,15.86036917300415,5.004314869128418,15.86036917300415,7.0425131691284175C15.86036917300415,7.0807585691284185,15.85920317300415,7.118623269128419,15.85804317300415,7.156233569128418C15.85574817300415,7.230701169128418,15.85348517300415,7.3041715691284175,15.86036917300415,7.377625969128418C15.75503317300415,11.188090369128417,12.65271237300415,14.252384669128418,8.96143527300415,14.673011669128417L8.96143527300415,16.60245466912842L8.933805973004151,24.41513366912842L8.933805973004151,32.49209166912841L9.31032657300415,32.49209166912841L9.31756977300415,32.49209466912842C9.31671477300415,32.49463766912842,9.33044817300415,32.49426566912842,9.35768697300415,32.49211166912842L9.37486217300415,32.492119669128414C9.404308273004151,32.49425366912842,9.420168873004151,32.494629669128415,9.41931107300415,32.49213866912842L26.88934017300415,32.49989566912842L27.19682317300415,32.49133366912842C27.87733917300415,32.49306166912842,28.25993917300415,32.32196166912841,28.877425173004152,31.924753669128417C29.46393417300415,31.546435669128417,29.90528317300415,31.028242669128417,30.19546217300415,30.442704669128418C30.27493317300415,30.32524366912842,30.33709717300415,30.193968669128417,30.37498117300415,30.04891466912842L33.082650173004154,17.94377066912842C33.119776173004155,17.801270669128417,33.13006417300415,17.656144669128416,33.119776173004155,17.516236669128418C33.17496117300415,16.75006266912842,33.00404217300415,15.958995669128418,32.57305417300415,15.255996669128418ZM9.41931107300415,32.49213866912842L9.37486217300415,32.492119669128414C9.37199207300415,32.49191166912841,9.36899277300415,32.49168666912841,9.36586757300415,32.49144666912842C9.36301807300415,32.49168466912842,9.360290973004151,32.491905669128414,9.35768697300415,32.49211166912842L9.31756977300415,32.49209466912842C9.31790117300415,32.49111066912842,9.32042027300415,32.489687669128415,9.325190973004151,32.48776366912842C9.284975073004151,32.48054766912841,9.26640227300415,32.47655766912842,9.36586757300415,32.47655766912842C9.46533297300415,32.47655766912842,9.44675967300415,32.48054766912841,9.41022777300415,32.48776366912842C9.416008473004151,32.48971666912841,9.418971073004151,32.49115266912842,9.41931107300415,32.49213866912842ZM28.50614817300415,30.04531766912842L31.42355417300415,17.11543166912842L31.41301417300415,17.112841669128418C31.51676617300415,16.78294466912842,31.48395817300415,16.41070566912842,31.29044417300415,16.09372466912842C31.04861717300415,15.699898669128418,30.62360017300415,15.494370669128418,30.19707317300415,15.516818669128417L30.19707317300415,15.513293669128418C30.19620917300415,15.513293669128418,29.68060717300415,15.496924669128418,29.68060717300415,15.496924669128418L21.28663517300415,15.487426669128418C20.594858173004152,15.487426669128418,19.923771173004152,15.423462669128417,19.923771173004152,14.723053669128419C19.923771173004152,14.521878669128418,19.971258173004152,14.331854669128418,20.05418217300415,14.162553669128418L20.04123117300415,14.150501669128419C20.54222717300415,13.207401269128418,20.90579817300415,12.178750069128418,21.11226117300415,11.093150569128419L21.12866617300415,11.093150569128419C21.12866617300415,11.093150569128419,21.29444217300415,10.408246969128417,21.29275017300415,9.094597769128418C21.29102417300415,8.05303196912842,21.09413017300415,7.083992769128418,21.09413017300415,7.083992769128418C21.09413017300415,6.4276177691284175,20.21664817300415,5.274635569128418,19.32704417300415,5.244379969128418C18.679339173004152,5.244379969128418,17.59377517300415,5.771206869128418,17.76735717300415,7.106441469128418C17.76735717300415,7.106441469128418,17.777645173004153,8.123795469128417,17.582478173004148,9.149856069128418C17.49869117300415,9.586852069128419,17.38216617300415,9.994563569128417,17.276721173004148,10.315789669128417C17.27423917300415,10.314962369128418,17.272404173004148,10.314098869128419,17.26985017300415,10.313235269128418C16.083159173004148,13.617594669128417,13.77978517300415,15.002907669128417,10.63950967300415,16.41851266912842L10.64555357300415,30.741480669128418L27.41608717300415,30.760475669128418C27.43466417300415,30.760475669128418,27.453141173004152,30.759701669128418,27.47148217300415,30.758932669128416C27.50776917300415,30.75741066912842,27.54353217300415,30.75591166912842,27.57851617300415,30.760475669128418C27.74166717300415,30.738926669128418,27.90326917300415,30.681834669128417,28.05012217300415,30.58595766912842C28.26079417300415,30.45126666912842,28.41282717300415,30.259516669128416,28.50265917300415,30.04358966912842L28.50614817300415,30.04531766912842ZM7.605441573004151,15.654107669128418C7.605441573004151,16.16104066912842,7.19434837300415,16.573033669128417,6.686480473004151,16.573033669128417L6.686480473004151,16.572961669128418L4.94630427300415,16.572961669128418L4.895326873004151,30.715475669128416L6.68651657300415,30.715475669128416L6.68651657300415,30.729327669128416C7.1581206730041504,30.748322669128417,7.536404173004151,31.13088666912842,7.536404173004151,31.607600669128416C7.536404173004151,32.08355766912842,7.15808487300415,32.46612266912842,6.68651657300415,32.485117669128414L6.68651657300415,32.49033266912842L6.66061397300415,32.49033266912842C6.65716027300415,32.49033266912842,6.655433373004151,32.49202466912842,6.652015973004151,32.49202466912842C6.64852617300415,32.49202466912842,6.64679937300415,32.49033266912842,6.64330987300415,32.49033266912842L4.49797627300415,32.48954266912842C4.45495697300415,32.49638066912841,4.411142873004151,32.494128669128415,4.36680707300415,32.491848669128416C4.34444367300415,32.49069866912842,4.32194777300415,32.48954266912842,4.29935487300415,32.48954266912842C3.6066805730041502,32.48954266912842,3.0453171730041504,31.93940266912842,3.0453171730041504,31.238058669128417L3.0573690170041505,16.003899669128415C3.0573690170041505,15.301727669128418,3.6179049630041504,14.734247669128418,4.30967997300415,14.734247669128418C4.361484873004151,14.734247669128418,4.413325673004151,14.737773669128417,4.46343967300415,14.744644669128418L6.66057797300415,14.739500669128418C6.66924807300415,14.739500669128418,6.67694687300415,14.734247669128418,6.686480473004151,14.734247669128418C7.19434837300415,14.734247669128418,7.605441573004151,15.146276669128419,7.605441573004151,15.654107669128418Z" fill-rule="evenodd" fill="#000000" fill-opacity="0.30000001192092896"/></g></svg>