<svg xmlns="http://www.w3.org/2000/svg" xmlns:xlink="http://www.w3.org/1999/xlink" fill="none" version="1.1" width="24" height="24" viewBox="0 0 24 24"><defs><clipPath id="master_svg0_293_04260"><rect x="0" y="0" width="24" height="24" rx="0"/></clipPath><filter id="master_svg1_293_04260/293_7428" filterUnits="objectBoundingBox" color-interpolation-filters="sRGB" x="-0.20994859528786683" y="-0.3233433121838708" width="1.4198971905757336" height="1.8083582890656955"><feFlood flood-opacity="0" result="BackgroundImageFix"/><feColorMatrix in="SourceAlpha" type="matrix" values="0 0 0 0 0 0 0 0 0 0 0 0 0 0 0 0 0 0 127 0"/><feOffset dy="0.5598629713058472" dx="0"/><feGaussianBlur stdDeviation="0.6998286843299866"/><feColorMatrix type="matrix" values="0 0 0 0 0.8039215803146362 0 0 0 0 0.5333333611488342 0 0 0 0 0.33725491166114807 0 0 0 0.20000000298023224 0"/><feBlend mode="normal" in2="BackgroundImageFix" result="effect1_dropShadow"/><feBlend mode="normal" in="SourceGraphic" in2="effect1_dropShadow" result="shape"/></filter></defs><g clip-path="url(#master_svg0_293_04260)"><g><g><path d="M7.8110752,8.171678100000001L1.33831036,6.8131962L3.9669966,18.295444Q4.241221400000001,19.493275,5.3258924,19.969952Q12.29895,23.034391,18.745193,19.970058Q19.760077,19.487613,20.022953,18.339351L22.663975,6.803216L16.5066,8.1715212L11.9849958,3.24413216L7.8110752,8.171678100000001ZM2.66168964,8.1127295L7.8973002,9.2115612L8.188926200000001,9.2727666L12.015005,4.75586772L16.160068000000003,9.2729225L21.336025,8.122709799999999L19.04817,18.116191Q18.893368,18.792383,18.315866,19.066909000000003Q12.282629,21.934914,5.7282224,19.054458Q5.1038103,18.780048,4.9417779,18.072283L2.66168964,8.1127295Z" fill-rule="evenodd" fill="#1A1A1A" fill-opacity="0.4000000059604645"/></g><g filter="url(#master_svg1_293_04260/293_7428)"><path d="M6.2471318825,15.5749806921875Q6.2516230324999995,15.5791115921875,6.2561174625,15.5832333921875Q7.4447152125,16.6733040921875,8.8595073125,17.1325568921875C10.2635717125,17.5883273921875,11.8153701125,17.521013692187502,13.219927312500001,17.0667633921875Q14.5781736125,16.6274900921875,15.5941318125,15.7337340921875Q15.7945158125,15.5574526921875,15.9815808125,15.3634945921875C15.9553528125,15.3244435921875,15.9298888125,15.2847823921875,15.9051938125,15.2445544921875C15.8980838125,15.2329730921875,15.8910368125,15.2213446921875,15.8840548125,15.2096702921875C15.4439988125,14.4738747921875,15.2577410125,13.5556389921875,15.3611798125,12.7154420921875Q15.3627978125,12.7023056921875,15.3645158125,12.6892439921875C15.4336488125,12.1637538621875,15.7961278125,11.6703626721875,16.318352812500002,11.5798058951875Q16.7855798125,11.4987860581875,17.3339278125,11.6882958821875Q18.657162812499998,12.4858688121875,17.6555448125,14.4673192921875Q17.6486058125,14.4827999921875,17.6416548125,14.4980959921875Q17.4836098125,14.8458973921875,17.2905208125,15.1640376921875Q17.268249812500002,15.2007326921875,17.2454948125,15.2370595921875Q17.2164728125,15.2833931921875,17.186684812499998,15.329092492187499C17.2475518125,15.3624171921875,17.3090368125,15.3939833921875,17.3708428125,15.4236938921875C17.5072728125,15.4892766921875,17.645266812499997,15.5458190921875,17.7816248125,15.5922822921875Q17.9120518125,15.6367244921875,18.0431968125,15.6715173921875C18.0476628125,15.6727022921875,18.052121812499998,15.6739172921875,18.056573812499998,15.6751627921875C18.1218758125,15.6934294921875,18.1855198125,15.7181930921875,18.2449538125,15.7495879921875C18.2973878125,15.7772855921875,18.3465448125,15.8101439921875,18.390671812500003,15.8482546921875C18.4168038125,15.8708242921875,18.441171812500002,15.8952359921875,18.4634108125,15.921508792187499C18.499562812500002,15.9642195921875,18.5300908125,16.0118488921875,18.5534278125,16.0644783921875Q18.743350812499997,16.4927920921875,18.6138258125,16.6399664921875Q18.5460208125,16.7170114921875,18.390671812500003,16.7170114921875Q17.9423008125,16.6760134921875,17.550981812499998,16.5492834921875Q17.5470098125,16.5479969921875,17.543042812499998,16.5467013921875L17.541832812499997,16.5463065921875Q17.2477258125,16.4501409921875,16.985951812499998,16.3053798921875C16.908922812500002,16.262783492187502,16.834398812499998,16.2164692921875,16.7624188125,16.1667303921875C16.714551812499998,16.1336545921875,16.6678108125,16.0990643921875,16.6222058125,16.0630454921875Q16.5514048125,16.1415042921875,16.477723812500003,16.2175001921875Q15.3596598125,17.3706917921875,13.5754833125,17.9600953921875C11.9289713125,18.5040201921875,10.1136122125,18.579149292187502,8.4802933125,17.9968070921875Q6.8384635125,17.4114303921875,5.7929675025,16.1461696921875C5.4740594025,15.7602266921875,5.1213492425,15.1326782921875,5.4763723325,14.7796725921875Q5.4781869025,14.7778682921875,5.4800244525,14.776103692187501Q5.8509976825,15.2106263921875,6.2471318825,15.5749806921875ZM16.6337838125,14.0092927921875Q16.6129298125,14.0558108921875,16.5913498125,14.1016480921875Q16.3904688125,13.5186695921875,16.4719388125,12.8568691921875L16.4746758125,12.8352959921875Q16.4868218125,12.7429744921875,16.536843812500003,12.6820641921875L16.5096658125,12.6830672921875Q16.649065812499998,12.6588944921875,16.8423188125,12.7084749921875Q16.9508818125,12.8002539921875,16.9636488125,12.9105649921875Q17.0054108125,13.2714236921875,16.6562388125,13.9621727921875L16.644461812499998,13.9854709921875L16.6337838125,14.0092927921875Z" fill-rule="evenodd" fill="#1A1A1A" fill-opacity="0.4000000059604645"/></g></g></g></svg>