<svg xmlns="http://www.w3.org/2000/svg" xmlns:xlink="http://www.w3.org/1999/xlink" fill="none" version="1.1" width="24" height="24" viewBox="0 0 24 24"><defs><clipPath id="master_svg0_293_06639"><rect x="0" y="0" width="24" height="24" rx="0"/></clipPath><filter id="master_svg1_293_06639/293_7358" filterUnits="objectBoundingBox" color-interpolation-filters="sRGB" x="-0.20994859528786683" y="-0.3233433121838708" width="1.4198971905757336" height="1.8083582890656955"><feFlood flood-opacity="0" result="BackgroundImageFix"/><feColorMatrix in="SourceAlpha" type="matrix" values="0 0 0 0 0 0 0 0 0 0 0 0 0 0 0 0 0 0 127 0"/><feOffset dy="0.5598629713058472" dx="0"/><feGaussianBlur stdDeviation="0.6998286843299866"/><feColorMatrix type="matrix" values="0 0 0 0 0.8039215803146362 0 0 0 0 0.5333333611488342 0 0 0 0 0.33725491166114807 0 0 0 0.20000000298023224 0"/><feBlend mode="normal" in2="BackgroundImageFix" result="effect1_dropShadow"/><feBlend mode="normal" in="SourceGraphic" in2="effect1_dropShadow" result="shape"/></filter></defs><g clip-path="url(#master_svg0_293_06639)"><g><g><path d="M2,7.4629629L4.4543872,18.183863000000002C4.5886981,18.77054,4.9760621,19.270061,5.5270574,19.512205Q12.290791,22.484652,18.530529,19.518484C19.050694,19.271214,19.407032,18.789194000000002,19.535561,18.227771L22,7.4629629L16.333334,8.722221900000001L12,4L8.000000499999999,8.722221900000001L2,7.4629629Z" fill="#1A1A1A" fill-opacity="1"/><path d="M7.8110752,8.171678100000001L1.33831036,6.8131962L3.9669966,18.295444Q4.241221400000001,19.493275,5.3258924,19.969952Q12.29895,23.034391,18.745193,19.970058Q19.760077,19.487613,20.022953,18.339351L22.663975,6.803216L16.5066,8.1715212L11.9849958,3.24413216L7.8110752,8.171678100000001ZM2.66168964,8.1127295L7.8973002,9.2115612L8.188926200000001,9.2727666L12.015005,4.75586772L16.160068000000003,9.2729225L21.336025,8.122709799999999L19.04817,18.116191Q18.893368,18.792383,18.315866,19.066909000000003Q12.282629,21.934914,5.7282224,19.054458Q5.1038103,18.780048,4.9417779,18.072283L2.66168964,8.1127295Z" fill-rule="evenodd" fill="#1A1A1A" fill-opacity="1"/></g><g filter="url(#master_svg1_293_06639/293_7358)"><path d="M18.390671812500003,16.7170114921875Q18.0392898125,16.6848821921875,17.7229428125,16.6000976921875Q17.3270018125,16.4939808921875,16.985951812499998,16.3053798921875C16.8733868125,16.243131192187498,16.7661678125,16.1729440921875,16.664420812499998,16.0957307921875C16.6502428125,16.084971392187498,16.636171812500002,16.0740751921875,16.6222058125,16.0630454921875Q16.5928648125,16.0955595921875,16.5629928125,16.1276897921875Q15.4284848125,17.3479556921875,13.5754833125,17.9600953921875C11.9289713125,18.5040201921875,10.1136122125,18.579149292187502,8.4802933125,17.9968070921875Q6.8384635125,17.4114303921875,5.7929675025,16.1461696921875C5.4740594025,15.7602266921875,5.1213492425,15.1326782921875,5.4763723325,14.7796725921875Q5.4781869025,14.7778682921875,5.4800244525,14.776103692187501Q6.9675059125,16.5183977921875,8.8595073125,17.1325568921875C10.2635717125,17.5883273921875,11.8153701125,17.521013692187502,13.219927312500001,17.0667633921875Q14.8222046125,16.5485672921875,15.9481488125,15.3979086921875Q15.9649198125,15.3807692921875,15.9815808125,15.3634945921875C15.9797188125,15.3607227921875,15.9778618125,15.3579475921875,15.9760078125,15.3551694921875C15.9672128125,15.341991892187501,15.9585048125,15.3287453921875,15.9498838125,15.315431592187501C15.4627518125,14.5631444921875,15.2527227125,13.5963964921875,15.3611798125,12.7154420921875Q15.3627978125,12.7023056921875,15.3645158125,12.6892439921875C15.4336488125,12.1637538621875,15.7961278125,11.6703626721875,16.318352812500002,11.5798058951875Q16.7855798125,11.4987860581875,17.3339278125,11.6882958821875Q18.657162812499998,12.4858688121875,17.6555448125,14.4673192921875Q17.6486178125,14.482773592187499,17.6416528125,14.4980997921875Q17.4579848125,14.9022876921875,17.2269848125,15.2664222921875Q17.2069998125,15.2979261921875,17.186684812499998,15.329092492187499C17.3819088125,15.4359776921875,17.583492812499998,15.524769992187501,17.7816248125,15.5922822921875Q17.9120518125,15.6367244921875,18.0431968125,15.6715173921875C18.074110812500003,15.6797189921875,18.1046948125,15.6893648921875,18.1346798125,15.7004694921875C18.1652698125,15.7117981921875,18.1952368125,15.724645092187501,18.2242968125,15.7390245921875C18.2844948125,15.768812692187499,18.340796812500002,15.8051786921875,18.390671812500003,15.8482546921875C18.4168048125,15.8708242921875,18.441171812500002,15.8952364921875,18.4634108125,15.921509292187501C18.499562812500002,15.9642200921875,18.5300908125,16.0118493921875,18.5534278125,16.0644783921875Q18.743350812499997,16.4927920921875,18.6138258125,16.6399664921875Q18.5460208125,16.7170114921875,18.390671812500003,16.7170114921875ZM16.7430348125,14.0582668921875Q16.6660228125,14.2300633921875,16.579220812499997,14.392927892187501Q16.2503008125,13.6773824921875,16.3531718125,12.8417471921875L16.3559728125,12.8196794921875Q16.3871378125,12.5828017921875,16.4892088125,12.5651018921875Q16.663149812500002,12.5349396421875,16.8979138125,12.599414792187499Q17.0629828125,12.7274598921875,17.082580812499998,12.8968009921875Q17.128473812499998,13.2933617921875,16.7630888125,14.0161850921875L16.7525708125,14.0369922921875L16.7430348125,14.0582668921875Z" fill-rule="evenodd" fill="#FFFFFF" fill-opacity="1"/></g></g></g></svg>