<svg xmlns="http://www.w3.org/2000/svg" xmlns:xlink="http://www.w3.org/1999/xlink" fill="none" version="1.1" width="28.800003051757812" height="28.800048828125" viewBox="0 0 28.800003051757812 28.800048828125"><rect x="0" y="0" width="28.799999237060547" height="28.799999237060547" rx="0" fill="#000000" fill-opacity="1" style="opacity:0;"/><g><path d="M20.001599950790407,4.852800128991699L23.155200950790405,4.852800128991699C24.595198950790405,4.852800128991699,25.776000950790404,6.033600128991699,25.776000950790404,7.473599928991699L25.776000950790404,22.982400028991698C25.776000950790404,24.4368010289917,24.595198950790405,25.6032000289917,23.155200950790405,25.6032000289917L5.702399950790405,25.6032000289917C4.262399950790405,25.6032000289917,3.0815999507904053,24.4224000289917,3.0815999507904053,22.982400028991698L3.0815999507904053,7.473599928991699C3.0815999507904053,6.033600128991699,4.262399950790405,4.852800128991699,5.702399950790405,4.852800128991699L8.870399750790405,4.852800128991699L8.870399750790405,3.4272000189916993C8.870399750790405,3.009600038991699,9.215999850790405,2.649600028991699,9.648000050790404,2.649600028991699C10.065600150790406,2.649600028991699,10.425599850790405,2.9952000389916993,10.425599850790405,3.4272000189916993L10.425599850790405,4.852800128991699L18.446399950790408,4.852800128991699L18.446399950790408,3.4272000189916993C18.446399950790408,3.009600038991699,18.791999950790405,2.649600028991699,19.224000950790405,2.649600028991699C19.641598950790407,2.649600028991699,20.001599950790407,2.9952000389916993,20.001599950790407,3.4272000189916993L20.001599950790407,4.852800128991699ZM23.155205950790407,24.0480220289917C23.745606950790407,24.0480220289917,24.220805950790407,23.5728230289917,24.220805950790407,22.9824230289917L24.206404950790404,22.9824230289917L24.206404950790404,7.473622828991699C24.206404950790404,6.883223028991699,23.731206950790405,6.408022928991699,23.140805950790405,6.408022928991699L19.987204950790407,6.408022928991699L19.987204950790407,7.704022928991699C19.987204950790407,8.1216230289917,19.641604950790406,8.481622728991699,19.209605950790404,8.481622728991699C18.792005950790404,8.481622728991699,18.432006950790406,8.1360230289917,18.432006950790406,7.704022928991699L18.432006950790406,6.408022928991699L10.411206450790406,6.408022928991699L10.411206450790406,7.704022928991699C10.411206450790406,8.1216230289917,10.065606350790405,8.481622728991699,9.633606150790406,8.481622728991699C9.216006050790405,8.481622728991699,8.856006350790405,8.1360230289917,8.856006350790405,7.704022928991699L8.856006350790405,6.408022928991699L5.702406150790406,6.408022928991699C5.112006150790405,6.408022928991699,4.636806250790405,6.883223028991699,4.636806250790405,7.473622828991699L4.636806250790405,22.9824230289917C4.636806250790405,23.5728230289917,5.112006150790405,24.0480220289917,5.702406150790406,24.0480220289917L23.155205950790407,24.0480220289917Z" fill-rule="evenodd" fill="#567895" fill-opacity="1"/></g><path d="M13.276800186047364,20.11680026397705C13.017600586047363,20.11680026397705,12.758400486047364,20.016000263977052,12.556800386047364,19.81440016397705L9.057600376047363,16.315200363977052C8.654400386047364,15.912000163977051,8.654400386047364,15.264000163977052,9.057600376047363,14.875200263977051C9.460800406047364,14.47200036397705,10.108800386047363,14.47200036397705,10.497600486047363,14.875200263977051L13.276800186047364,17.65440036397705L18.345600086047362,12.58560025397705C18.748800286047363,12.182400263977051,19.396800386047364,12.182400263977051,19.785600386047363,12.58560025397705C20.18880038604736,12.988800283977051,20.18880038604736,13.636800263977051,19.785600386047363,14.02560036397705L13.982400386047363,19.82880016397705C13.809600386047364,20.016000263977052,13.550400286047363,20.11680026397705,13.276800186047364,20.11680026397705Z" fill="#567895" fill-opacity="1"/></svg>