<svg xmlns="http://www.w3.org/2000/svg" xmlns:xlink="http://www.w3.org/1999/xlink" fill="none" version="1.1" width="24" height="24" viewBox="0 0 24 24"><defs><clipPath id="master_svg0_293_04254"><rect x="0" y="0" width="24" height="24" rx="0"/></clipPath></defs><g clip-path="url(#master_svg0_293_04254)"><g><path d="M4.3945425,4.81394768L2.64454257,18.813933Q2.56061196,19.485388,3.00843847,19.99269Q3.45627198,20.5,4.1329565,20.5L19.8673785,20.5Q20.5440635,20.5,20.9919035,19.992694999999998Q21.4397435,19.485393000000002,21.3558155,18.813933L19.6058175,4.81394935Q19.4415775,3.5,18.1173775,3.5L5.8829765,3.5Q4.55879,3.50000006,4.3945425,4.81394768ZM3.75812465,19.330896Q3.6088433,19.161789,3.63682055,18.937967L5.3868203,4.93798256Q5.441569299999999,4.5,5.8829765,4.5L18.1173775,4.5Q18.5587925,4.5,18.6135385,4.93798089L20.3635365,18.937967Q20.3915135,19.161783,20.2422255,19.330891Q20.0929395,19.5,19.8673785,19.5L4.1329565,19.5Q3.90740323,19.5,3.75812465,19.330896Z" fill-rule="evenodd" fill="#1A1A1A" fill-opacity="0.4000000059604645"/></g><g><path d="M12,11.5Q15.8090162,11.5,16.9472132,9.2236068L16.0527868,8.7763932Q15.1909833,10.5,12,10.5Q8.8090169,10.5,7.94721359,8.7763932L7.05278641,9.2236068Q8.19098282,11.5,12,11.5Z" fill-rule="evenodd" fill="#1A1A1A" fill-opacity="0.4000000059604645"/></g></g></svg>