<svg xmlns="http://www.w3.org/2000/svg" xmlns:xlink="http://www.w3.org/1999/xlink" fill="none" version="1.1" width="24" height="24" viewBox="0 0 24 24"><defs><clipPath id="master_svg0_293_01187"><rect x="0" y="0" width="24" height="24" rx="0"/></clipPath></defs><g clip-path="url(#master_svg0_293_01187)"><g><path d="M6.95297909,11.5L7.90201241,22.044819L7.94297862,22.500000999999997L16.0570211,22.500000999999997L17.04702,11.5L6.95297909,11.5ZM8.8570204,21.5L8.04702085,12.5L15.9529791,12.5L15.142980099999999,21.5L8.8570204,21.5Z" fill-rule="evenodd" fill="#1A1A1A" fill-opacity="0.4000000059604645"/></g><g><rect x="5.5" y="9" width="13" height="3" rx="1.5" fill-opacity="0" stroke-opacity="0.4000000059604645" stroke="#1A1A1A" fill="none" stroke-width="1"/></g><g><path d="M6.5,9.5L17.5,9.5L17.5,9Q17.5,6.7218425,15.8890781,5.1109214000000005Q14.2781563,3.49999988,11.9999976,3.5Q9.7218432,3.5,8.1109214,5.1109215Q6.49999982,6.7218432,6.5,9L6.5,9.5ZM16.4753094,8.5Q16.3196039,6.9556603,15.1819715,5.8180282000000005Q13.8639426,4.49999997,11.9999976,4.5Q10.136056700000001,4.5,8.8180281,5.8180285000000005Q7.68039513,6.9556613,7.52469021,8.5L16.4753094,8.5Z" fill-rule="evenodd" fill="#1A1A1A" fill-opacity="0.4000000059604645"/></g><g><path d="M12.55278641,3.7763932000000002L13.55278641,1.7763932L14.4472136,2.2236067999999998L13.44721359,4.223606800000001L12.55278641,3.7763932000000002Z" fill-rule="evenodd" fill="#1A1A1A" fill-opacity="0.4000000059604645"/></g></g></svg>