<svg xmlns="http://www.w3.org/2000/svg" xmlns:xlink="http://www.w3.org/1999/xlink" fill="none" version="1.1" width="24" height="24" viewBox="0 0 24 24"><defs><clipPath id="master_svg0_293_07451"><rect x="0" y="0" width="24" height="24" rx="0"/></clipPath></defs><g clip-path="url(#master_svg0_293_07451)"><g><g><path d="M-0.06314092999999998,13.910999745007324Q-0.11213021999999995,16.940782545007323,2.8546817,20.418689945007323L3.7129221,19.686570945007325Q1.02269626,16.532898945007325,1.06479555,13.929236845007324Q1.10602629,11.379283145007324,3.8166666,9.227509315007325L3.1152899,8.343968575007324Q-0.013283310000000048,10.827507045007325,-0.06314092999999998,13.910999745007324Z" fill-rule="evenodd" fill="#000000" fill-opacity="1"/></g><g transform="matrix(-1,-5.2146120310681e-8,5.2146120310681e-8,-1,46.99999907783707,35.368420872650624)"><path d="M22.93612504,22.894723423608397Q22.93605787,25.944729823608398,25.899503199999998,29.418689823608396L26.7577431,28.6865708236084Q24.06415105,25.5289516236084,24.06420881,22.894748723608398Q24.06426537,20.3160152236084,26.690974,18.1166740936084L25.9667699,17.251745553608398Q22.93619323,19.7892461236084,22.93612504,22.894723423608397Z" fill-rule="evenodd" fill="#000000" fill-opacity="1"/></g><g><path d="M12.367344810363768,7.1728005L17.37766681036377,7.1728005L17.37766681036377,8.300883800000001L6.06217861036377,8.300883800000001L6.06217861036377,7.1728005L11.23926071036377,7.1728005L11.23926071036377,5.9324632L5.0334978103637695,5.9324632L5.0334978103637695,4.8043791L11.23926071036377,4.8043791L11.23926071036377,3L12.367344810363768,3L12.367344810363768,4.8043791L18.40634781036377,4.8043791L18.40634781036377,5.9324632L12.367344810363768,5.9324632L12.367344810363768,7.1728005ZM7.041158210363769,9.0675373L7.041158210363769,13.037726L9.03726671036377,13.037726L8.71086141036377,13.303542L9.89023921036377,14.751746L5.0334978103637695,14.751746L5.0334978103637695,15.879831L18.40634781036377,15.879831L18.40634781036377,14.751746L14.06394861036377,14.751746L15.24332581036377,13.303542L14.916920710363769,13.037726L16.91303181036377,13.037726L16.91303181036377,9.0675373L7.041158210363769,9.0675373ZM14.00496201036377,13.037726L9.94922451036377,13.037726L11.128603010363769,14.485931L10.80219891036377,14.751746L13.151989010363769,14.751746L12.82558441036377,14.485931L14.00496201036377,13.037726ZM8.169242110363768,11.9096422L15.78494781036377,11.9096422L15.78494781036377,10.1956215L8.169242110363768,10.1956215L8.169242110363768,11.9096422ZM16.29928581036377,20.616674L16.29928581036377,21L17.42736981036377,21L17.42736981036377,16.646485L6.01247704036377,16.646485L6.01247704036377,21L7.140560910363769,21L7.140560910363769,20.616674L16.29928581036377,20.616674ZM16.29928581036377,19.488588L16.29928581036377,17.77457L7.140560910363769,17.77457L7.140560910363769,19.488588L16.29928581036377,19.488588Z" fill-rule="evenodd" fill="#000000" fill-opacity="1"/></g></g></g></svg>